PathFileType	4	(X/Y/Z)	Patient4_TMGait_0pt6_01_left_35.trc.trc
DataRate	CameraRate	NumFrames	NumMarkers	Units	OrigDataRate	OrigDataStartFrame	OrigNumFrames
78.212290502793	78.212290502793	4	33	mm	78.212290502793	36	       141
Frame#	Time	Sacral			L.Shoulder			Chest			R.Shoulder			Neck			R.ASIS			L.ASIS			R.Thigh.Superior			R.Thigh.Lateral			R.Thigh.Inferior			R.Patella			L.Thigh.Superior			L.Thigh.Lateral			L.Thigh.Inferior			L.Patella			L.Shank.Superior			L.Shank.Lateral			L.Shank.Inferior			R.Shank.Superior			R.Shank.Lateral			R.Shank.Inferior			R.Heel			R.Midfoot.Superior			R.Midfoot.Lateral			R.Toe			L.Heel			L.Midfoot.Lateral			L.Midfoot.Superior			L.Toe			L.Elbow			L.Wrist			R.Elbow			R.Wrist			
		X1	Y1	Z1	X2	Y2	Z2	X3	Y3	Z3	X4	Y4	Z4	X5	Y5	Z5	X6	Y6	Z6	X7	Y7	Z7	X8	Y8	Z8	X9	Y9	Z9	X10	Y10	Z10	X11	Y11	Z11	X12	Y12	Z12	X13	Y13	Z13	X14	Y14	Z14	X15	Y15	Z15	X16	Y16	Z16	X17	Y17	Z17	X18	Y18	Z18	X19	Y19	Z19	X20	Y20	Z20	X21	Y21	Z21	X22	Y22	Z22	X23	Y23	Z23	X24	Y24	Z24	X25	Y25	Z25	X26	Y26	Z26	X27	Y27	Z27	X28	Y28	Z28	X29	Y29	Z29	X30	Y30	Z30	X31	Y31	Z31	X32	Y32	Z32	X33	Y33	Z33	

36	42.977500000000	788.807526450626	1003.548618718733	473.076566382629	930.922559412570	1429.061435214553	281.310166639309	1058.485482948355	1359.986811275679	423.444445908238	1002.399864215180	1432.093096295266	607.630227272288	934.852639248831	1487.434562154342	435.728907030828	1021.407979507466	927.344478496540	563.277441371804	983.156521462917	958.299712807524	292.474408698895	1020.076231565459	714.398382359446	538.015594799841	921.999091701012	620.247798360710	605.998855251265	983.871760877611	551.041626395952	527.123647589893	961.831567049989	451.381626790833	541.647551416198	1057.797635962427	764.419434673930	325.325242294672	987.772237942169	637.197208623836	265.741097210519	1085.901731426410	572.606903349045	326.112670350728	1097.183966244331	502.365543253959	333.312926386265	1078.984366622889	428.592158897343	326.236184684520	1002.717622869911	303.344019720782	280.829165264066	1072.852455278558	199.778583421739	347.133550967479	893.763160910574	382.274079880836	549.729296308931	784.496195383424	321.738072338513	613.623459591775	781.992600272939	215.092714790102	557.125515624579	592.856555128328	102.978695314095	529.446939034990	770.178267698014	105.473998425489	571.425712381192	667.370455608769	68.375920454177	603.793025685972	867.752107002297	36.177187985339	599.957426698020	964.421715646970	38.709435900004	395.662004982446	1034.921904717632	36.261442870558	311.755279420354	1118.404743603077	97.984692612724	334.417675722481	1245.843349181109	46.874452603226	301.491311250806	825.985345263950	1084.401357658107	192.348376459608	815.860172880710	825.140066926110	201.583409069190	1114.081487127436	1103.202188368254	711.675521829016	1322.309200881730	1204.528136325795	622.268306684390	
37	42.990285714286	789.551523218227	1004.609204844582	469.791909256680	932.280541727929	1430.733882466519	279.059366910198	1059.197329060919	1361.490139278681	421.643486519320	1002.160280524966	1433.235214830592	605.638332507490	935.430723644962	1488.739685185916	433.631042016367	1021.918523288792	928.692871550370	560.303746073766	984.424291801154	959.728038811948	289.654204910939	1024.281937191671	716.103709124057	535.628691749572	928.436794055540	620.444173804939	604.004342906890	992.284121488702	551.776022401676	525.608822808522	971.136746368306	450.398434379313	541.809336837322	1058.442269057385	764.617077402064	322.085106118368	986.557223269910	637.510379865414	264.012561121609	1084.146398081922	572.136519458974	324.195641916295	1094.736723884384	501.959366811667	332.336128284473	1075.855862101710	428.196244520744	325.461068857311	998.512928712720	303.692820342961	279.989731043435	1066.863008761519	199.526362143630	347.049569276661	900.521901170735	382.636705595899	549.661961375248	788.613789347423	326.249477557118	612.777529510434	783.467610168431	219.043845635520	557.553569038016	590.717908256219	114.791889774934	529.714457687046	767.713775704144	107.656842654597	572.105800620606	663.118943071453	75.881938036273	603.946554544780	860.464888718854	35.547808173319	599.851642157559	956.778988802442	38.714912600422	395.557794597756	1027.269699760218	36.328423651528	311.650872931151	1110.745263169844	98.081819886670	334.362719629251	1238.212571564365	46.873364475985	301.302475275061	831.990997980254	1084.753618705662	188.084344541138	830.055439598338	825.173235907735	196.026190569157	1105.828355674323	1100.964768682873	709.533592260666	1318.687182003254	1192.271473393589	620.581548646457	
38	43.003071428571	790.157608472260	1005.500430061278	466.464021573673	933.631819064544	1432.305820527930	276.825741570404	1059.774412055874	1362.903016255277	419.959844649467	1001.577241537873	1434.177001695852	603.748023884489	935.837201455698	1489.916914293285	431.576201270955	1022.291315816017	929.925793913942	557.514055168757	985.696326718328	960.915275853938	287.009676374072	1028.888082312202	717.871074016576	533.546805731985	935.325530791390	620.592423941959	602.106575475248	1001.277776825385	552.615650074349	524.186424465056	981.055556892686	449.630243853980	541.815623652658	1058.776086067822	764.428677507384	318.997980908237	985.089196023486	637.639646910424	262.283273634004	1082.065897779596	571.491745453869	322.403042900912	1091.999502175551	501.404258684038	331.321654553186	1072.436288153004	427.670690869483	324.629459566125	994.022980227893	303.869913056485	279.213241748803	1060.760020609885	199.198044992966	346.938308992749	908.047009136677	383.119338966538	549.467359652188	793.650097106760	331.014977675586	611.836301525949	785.765536620849	223.358126523387	557.880500955535	589.718694422902	127.638726676138	529.830964134793	765.783318068260	110.236389674736	572.646288831138	659.590577998053	84.396206498355	604.022762439334	853.186147134872	34.738100072386	599.789636612438	949.087596740464	38.693715620684	395.484235096290	1019.574067409917	36.339227511767	311.577254491723	1103.082009932168	98.095094711661	334.343628452535	1230.573038538767	46.702601349996	301.168316561785	837.831300548547	1085.198455408852	183.606670193729	845.133922875380	825.562473493408	190.191527865048	1096.993417365622	1098.665219925730	707.383301037946	1314.787955696258	1178.334363332352	619.298157854262	
39	43.015857142857	790.598214689826	1006.191768009914	463.133796612104	934.993867076841	1433.711548646296	274.618539283812	1060.232834459109	1364.164761208625	418.409382666090	1000.682340097801	1434.880408502816	601.973839750209	936.095246715184	1490.928333978687	429.572409545316	1022.505995638878	931.000281566249	554.944295978721	986.926984025667	961.838534489245	284.551616564957	1033.816114557582	719.702123161506	531.734341202976	942.598222038334	620.718599090365	600.287454801095	1010.728057217880	553.594909453333	522.801961315014	991.480499335487	449.112140297032	541.567306941887	1058.790881329192	763.921896940280	316.180220662022	983.499651423885	637.638299608191	260.544237812507	1079.756399914774	570.733486403129	320.768426722170	1089.041906492726	500.721893353536	330.269563162653	1068.802884068028	427.027989355315	323.746957714836	989.335454564116	303.897945990941	278.460150732139	1054.591398801780	198.798051605102	346.786110849991	916.247778638042	383.739221566516	549.060043810106	799.570482862428	335.995031088952	610.773215994211	788.864110244562	228.021181535538	558.049579987441	589.954265929239	141.399144427112	529.749128872162	764.407671576032	113.276238507695	573.005028397895	656.890004953336	93.893954754347	603.985509765147	845.978973175154	33.743233105405	599.785884525823	941.370254467654	38.659195313791	395.425027190941	1011.858035358334	36.306198070477	311.518971856023	1095.438957783382	98.028626958821	334.350656597357	1222.943267490980	46.372918469138	301.083164861141	843.547806035464	1085.662302868893	178.932576882328	861.009489650748	826.325695640380	184.133397851133	1087.694340745375	1096.305646544811	705.224040169671	1310.480628999199	1162.806523882518	618.420320595503	
